# xmcd
#
# Track frame offsets:
# 150
# 14466
# 26970
# 38826
# 48592
# 60295
# 78622
# 95243
# 108137
# 121575
# 133619
# 148819
#
# Disc length: 2217 seconds
#
# Revision: 0
# Processed by: cddbd v1.5.2PL0 Copyright (c) Steve Scherf et al.
# Submitted via: Audion 3.0.2 (http://www.panic.com/audion/)
#
DISCID=a208a70c
DTITLE=Neil "Sleepy" Holt - Memories
DYEAR=1900
DGENRE=
TTITLE0=The Sunshine Of Her Smile
TTITLE1=I'll Go To A Stranger
TTITLE2=That's All She Wrote
TTITLE3=Mobile
TTITLE4=God Walks These Hills
TTITLE5=Molly Ann
TTITLE6=You Arre Beautiful
TTITLE7=Down In Nashville, Tennessee
TTITLE8=A Little Sentimental
TTITLE9=You Belong To Me
TTITLE10=There's Always Me
TTITLE11=Home To Count The Mem'ries
EXTD=
EXTT0=
EXTT1=
EXTT2=
EXTT3=
EXTT4=
EXTT5=
EXTT6=
EXTT7=
EXTT8=
EXTT9=
EXTT10=
EXTT11=
PLAYORDER=
